<?xml version="1.0" standalone="no"?>
<!DOCTYPE svg PUBLIC "-//W3C//DTD SVG 20010904//EN"
 "http://www.w3.org/TR/2001/REC-SVG-20010904/DTD/svg10.dtd">
<svg version="1.0" xmlns="http://www.w3.org/2000/svg"
 width="260.000000pt" height="260.000000pt" viewBox="0 0 260.000000 260.000000"
 preserveAspectRatio="xMidYMid meet">
<metadata>
Created by potrace 1.11, written by Peter Selinger 2001-2013
</metadata>
<g transform="translate(0.000000,260.000000) scale(0.100000,-0.100000)"
fill="#000000" stroke="none">
<path d="M1123 2579 c-377 -55 -708 -273 -893 -589 -130 -223 -189 -470 -177
-745 19 -420 178 -740 482 -968 94 -71 309 -177 415 -206 184 -50 431 -66 617
-40 374 52 668 227 859 512 l47 70 -34 28 c-19 16 -38 29 -44 29 -5 0 -28 -28
-50 -62 -55 -86 -185 -220 -263 -272 -124 -81 -280 -148 -414 -175 -29 -6 -64
-14 -78 -17 -57 -13 -361 -16 -442 -4 -251 36 -525 185 -685 371 -185 215
-274 478 -274 803 0 548 326 1002 813 1131 285 75 658 46 883 -67 72 -37 161
-105 233 -179 96 -98 226 -288 210 -305 -4 -3 -40 5 -81 20 -77 27 -97 31 -97
18 0 -8 136 -197 187 -259 14 -18 33 -43 42 -57 45 -68 105 -146 112 -146 5 0
9 6 9 14 0 8 9 97 19 198 11 101 23 228 26 283 l6 100 -33 -35 c-18 -20 -45
-51 -59 -69 -33 -45 -51 -38 -87 36 -73 152 -214 322 -332 403 -197 134 -409
191 -705 189 -82 -1 -178 -5 -212 -10z"/>
</g>
</svg>
